<svg width="19" height="20" viewBox="0 0 19 20" fill="none" xmlns="http://www.w3.org/2000/svg">
  <path d="M9.5 0.375C4.23047 0.375 0 4.64258 0 9.875C0 15.1445 4.23047 19.375 9.5 19.375C14.7324 19.375 19 15.1445 19 9.875C19 4.64258 14.7324 0.375 9.5 0.375ZM8.60938 6.01562C8.60938 5.5332 8.98047 5.125 9.5 5.125C9.98242 5.125 10.3906 5.5332 10.3906 6.01562V10.7656C10.3906 11.2852 9.98242 11.6562 9.5 11.6562C8.98047 11.6562 8.60938 11.2852 8.60938 10.7656V6.01562ZM9.5 15.2188C8.83203 15.2188 8.3125 14.6992 8.3125 14.0684C8.3125 13.4375 8.83203 12.918 9.5 12.918C10.1309 12.918 10.6504 13.4375 10.6504 14.0684C10.6504 14.6992 10.1309 15.2188 9.5 15.2188Z" fill="#B00020"/>
</svg>
