<svg xmlns="http://www.w3.org/2000/svg" xmlns:xlink="http://www.w3.org/1999/xlink" viewBox="0 0 51.52 68.7"><defs><style>.cls-1{fill:url(#Degradado_sin_nombre);}.cls-2{fill:#812071;}</style><linearGradient id="Degradado_sin_nombre" x1="25.76" y1="56.56" x2="25.76" y2="6.88" gradientTransform="matrix(1, 0, 0, -1, 0, 64.88)" gradientUnits="userSpaceOnUse"><stop offset="0.32" stop-color="#822072"/><stop offset="0.44" stop-color="#761f69"/><stop offset="0.81" stop-color="#561a4d"/></linearGradient></defs><title>Recurso 3</title><g id="Capa_2" data-name="Capa 2"><g id="Capa_1-2" data-name="Capa 1"><path class="cls-1" d="M49,12.61,38.91,2.55a8.54,8.54,0,0,0-6-2.55H8.59A8.56,8.56,0,0,0,0,8.59V60.11A8.48,8.48,0,0,0,8.59,68.7H42.93a8.56,8.56,0,0,0,8.59-8.59V18.64A8.52,8.52,0,0,0,49,12.61Zm-6,49.63H8.59a2.1,2.1,0,0,1-2.15-2V8.72A2.12,2.12,0,0,1,8.59,6.57H30.05v10.6a4.24,4.24,0,0,0,4.29,4.29h10.6V60.1A2,2,0,0,1,42.93,62.24Z"/><path class="cls-2" d="M14.46,30H37.07a2.46,2.46,0,0,1,2.46,2.46h0a2.46,2.46,0,0,1-2.46,2.46H14.46A2.46,2.46,0,0,1,12,32.41h0A2.45,2.45,0,0,1,14.46,30Z"/><path class="cls-2" d="M14.46,39.14H37.07a2.46,2.46,0,0,1,2.46,2.46h0a2.46,2.46,0,0,1-2.46,2.46H14.46A2.46,2.46,0,0,1,12,41.6h0A2.45,2.45,0,0,1,14.46,39.14Z"/><path class="cls-2" d="M14.46,48.33H37.07a2.46,2.46,0,0,1,2.46,2.46h0a2.46,2.46,0,0,1-2.46,2.46H14.46A2.46,2.46,0,0,1,12,50.79h0A2.46,2.46,0,0,1,14.46,48.33Z"/></g></g></svg>