<svg width="15" height="20" viewBox="0 0 15 20" fill="none" xmlns="http://www.w3.org/2000/svg">
  <path d="M9.875 0.375V5.125H14.625L9.875 0.375ZM8.6875 5.125V0.375H2.15625C1.1543 0.375 0.375 1.19141 0.375 2.15625V17.5938C0.375 18.5957 1.1543 19.375 2.15625 19.375H12.8438C13.8086 19.375 14.625 18.5957 14.625 17.5938V6.3125H9.875C9.20703 6.3125 8.6875 5.79297 8.6875 5.125ZM11.0625 11.582V12.9551C11.0625 13.2148 10.8027 13.4375 10.543 13.4375H8.6875V15.293C8.6875 15.5898 8.42773 15.8125 8.16797 15.8125H6.79492C6.53516 15.8125 6.3125 15.5898 6.3125 15.3301V13.4375H4.41992C4.16016 13.4375 3.9375 13.2148 3.9375 12.9551V11.582C3.9375 11.3223 4.16016 11.0625 4.41992 11.0625H6.3125V9.20703C6.3125 8.94727 6.53516 8.6875 6.79492 8.6875H8.16797C8.42773 8.6875 8.6875 8.94727 8.6875 9.20703V11.0625H10.543C10.8027 11.0625 11.0625 11.3223 11.0625 11.582Z" fill="black"/>
</svg>
