<svg width="16" height="20" viewBox="0 0 16 20" fill="none" xmlns="http://www.w3.org/2000/svg">
  <path d="M9.78125 0.375C10.4121 0.375 10.9688 0.931641 10.9688 1.5625C10.9688 2.23047 10.4121 2.75 9.78125 2.75H9.1875V4.04883C10.5605 4.27148 11.8223 4.82812 12.8613 5.68164L13.6777 4.90234C14.123 4.41992 14.9023 4.41992 15.3477 4.90234C15.8301 5.34766 15.8301 6.12695 15.3477 6.57227L14.457 7.46289C15.2363 8.6875 15.7188 10.1348 15.7188 11.6562C15.7188 15.9238 12.2305 19.375 8 19.375C3.73242 19.375 0.28125 15.9238 0.28125 11.6562C0.28125 7.79688 3.10156 4.60547 6.8125 4.04883V2.75H6.21875C5.55078 2.75 5.03125 2.23047 5.03125 1.5625C5.03125 0.931641 5.55078 0.375 6.21875 0.375H9.78125ZM8.89062 7.5C8.89062 7.01758 8.48242 6.60938 8 6.60938C7.48047 6.60938 7.10938 7.01758 7.10938 7.5V12.25C7.10938 12.7695 7.48047 13.1406 8 13.1406C8.48242 13.1406 8.89062 12.7695 8.89062 12.25V7.5Z" fill="black"/>
</svg>
