<svg xmlns="http://www.w3.org/2000/svg" xmlns:xlink="http://www.w3.org/1999/xlink" viewBox="0 0 84.74 53.54"><defs><style>.cls-1{fill:url(#Degradado_sin_nombre);}</style><linearGradient id="Degradado_sin_nombre" y1="26.77" x2="84.74" y2="26.77" gradientUnits="userSpaceOnUse"><stop offset="0.32" stop-color="#822072"/><stop offset="0.44" stop-color="#761f69"/><stop offset="0.81" stop-color="#561a4d"/></linearGradient></defs><title>Recurso 1</title><g id="Capa_2" data-name="Capa 2"><g id="Capa_1-2" data-name="Capa 1"><path class="cls-1" d="M84.74,51.51a1.42,1.42,0,0,0-.08.18A2.25,2.25,0,0,1,81.09,53c-2.56-1.64-5.12-3.3-7.67-5L62.86,41.19,62.44,41c0,.25,0,.42,0,.6,0,1.51,0,3-.15,4.54a8.84,8.84,0,0,1-7.42,7.32,13.06,13.06,0,0,1-1.65.11c-14.66,0-29.32,0-44,0A9.09,9.09,0,0,1,.3,46.87c-.12-.46-.2-.93-.3-1.4V8.06c.08-.37.15-.75.23-1.12A8.92,8.92,0,0,1,8.7,0H53.17a9,9,0,0,1,6.62,2.6,8.79,8.79,0,0,1,2.65,6.51v3.48l.51-.31L81,.61a5.15,5.15,0,0,1,.8-.43,2,2,0,0,1,2.57.93c.13.24.22.5.33.75ZM31.2,49.06h22A5.91,5.91,0,0,0,54.36,49,4.48,4.48,0,0,0,58,44.35q0-17.58,0-35.17A5.59,5.59,0,0,0,57.88,8a4.46,4.46,0,0,0-4.63-3.56H9.19a5.15,5.15,0,0,0-1.11.09A4.44,4.44,0,0,0,4.47,9.1q0,14.08,0,28.17c0,2.42,0,4.83,0,7.24a5,5,0,0,0,.4,1.92,4.36,4.36,0,0,0,4.31,2.63Zm49.05-1.91V6.39l-.38.24-17.1,11a.63.63,0,0,0-.33.63q0,8.49,0,17a.74.74,0,0,0,.4.73Q69.93,40.49,77,45.07Z"/></g></g></svg>