<svg xmlns="http://www.w3.org/2000/svg" xmlns:xlink="http://www.w3.org/1999/xlink" viewBox="0 0 79.96 62.58"><defs><style>.cls-1{fill:url(#Degradado_sin_nombre);}.cls-2{fill:url(#Degradado_sin_nombre-2);}</style><linearGradient id="Degradado_sin_nombre" y1="31.29" x2="79.96" y2="31.29" gradientUnits="userSpaceOnUse"><stop offset="0.32" stop-color="#822072"/><stop offset="0.44" stop-color="#761f69"/><stop offset="0.81" stop-color="#561a4d"/></linearGradient><linearGradient id="Degradado_sin_nombre-2" x1="33.02" y1="31.29" x2="50.41" y2="31.29" xlink:href="#Degradado_sin_nombre"/></defs><title>Recurso 2</title><g id="Capa_2" data-name="Capa 2"><g id="Capa_1-2" data-name="Capa 1"><path class="cls-1" d="M40,0H72.92a6.91,6.91,0,0,1,6.85,5.41A7,7,0,0,1,80,7q0,24.3,0,48.6a6.93,6.93,0,0,1-7,7H7a6.93,6.93,0,0,1-7-7V7A6.94,6.94,0,0,1,7,0ZM3.49,48.65h73V13.92h-73ZM22.62,3.49V10.4h15.6V3.49Zm34.73,0H41.75v6.91h15.6ZM38.23,52.17H22.63v6.91h15.6Zm19.11,6.91V52.17H41.74v6.91ZM19.12,3.51l-.13,0c-4.08,0-8.15,0-12.23,0a3.41,3.41,0,0,0-3.27,3.3c0,1.16,0,2.31,0,3.47a.49.49,0,0,0,0,.14H19.12Zm41.73,6.9H76.48V7.16A3.47,3.47,0,0,0,72.8,3.48H60.85Zm0,48.69H73a3.36,3.36,0,0,0,3.39-2.94c.14-1.3,0-2.63.06-3.95,0,0,0,0,0,0H60.84ZM3.48,52.16v3.31A3.48,3.48,0,0,0,7.11,59.1h12V52.16Z"/><path class="cls-2" d="M33,31.28v5.24c0,1.16,0,2.32,0,3.48a1.66,1.66,0,0,0,.9,1.5,1.6,1.6,0,0,0,1.72-.06l7.68-4.8,6.24-3.91a1.67,1.67,0,0,0,0-2.92c-.85-.51-1.7-1-2.54-1.56L35.7,21.17a1.67,1.67,0,0,0-1.26-.28A1.73,1.73,0,0,0,33,22.66Z"/><path class="cls-2" d="M33,31.28V22.66a1.73,1.73,0,0,1,1.41-1.77,1.67,1.67,0,0,1,1.26.28L47,28.25c.84.53,1.69,1.05,2.54,1.56a1.67,1.67,0,0,1,0,2.92l-6.24,3.91-7.68,4.8a1.6,1.6,0,0,1-1.72.06A1.66,1.66,0,0,1,33,40c0-1.16,0-2.32,0-3.48Z"/></g></g></svg>